<?xml version="1.0" encoding="UTF-8"?>
<svg width="700pt" height="700pt" version="1.1" viewBox="0 0 700 700" xmlns="http://www.w3.org/2000/svg" xmlns:xlink="http://www.w3.org/1999/xlink">
 <defs>
  <symbol id="b" overflow="visible">
   <path d="m39.078-2.3281c-2.0117 1.043-4.1094 1.8281-6.2969 2.3594s-4.4648 0.79688-6.8281 0.79688c-7.0859 0-12.699-1.9766-16.844-5.9375-4.1367-3.957-6.2031-9.3281-6.2031-16.109 0-6.7891 2.0664-12.164 6.2031-16.125 4.1445-3.9688 9.7578-5.9531 16.844-5.9531 2.3633 0 4.6406 0.26562 6.8281 0.79688s4.2852 1.3242 6.2969 2.375v8.7969c-2.0312-1.3828-4.0391-2.3984-6.0156-3.0469-1.9688-0.64453-4.0469-0.96875-6.2344-0.96875-3.9062 0-6.9844 1.2578-9.2344 3.7656-2.2422 2.5-3.3594 5.9531-3.3594 10.359 0 4.3867 1.1172 7.8359 3.3594 10.344 2.25 2.5 5.3281 3.75 9.2344 3.75 2.1875 0 4.2656-0.32031 6.2344-0.96875 1.9766-0.64453 3.9844-1.6602 6.0156-3.0469z"/>
  </symbol>
  <symbol id="a" overflow="visible">
   <path d="m16.031-40.953v9.0625h10.516v7.2812h-10.516v13.531c0 1.4805 0.28906 2.4805 0.875 3 0.59375 0.52344 1.7656 0.78125 3.5156 0.78125h5.2344v7.2969h-8.7344c-4.0312 0-6.8867-0.83594-8.5625-2.5156-1.6797-1.6875-2.5156-4.5391-2.5156-8.5625v-13.531h-5.0781v-7.2812h5.0781v-9.0625z"/>
  </symbol>
  <symbol id="e" overflow="visible">
   <path d="m26.594-27.234v-17.078h10.266v44.312h-10.266v-4.6094c-1.3984 1.875-2.9453 3.25-4.6406 4.125-1.6875 0.875-3.6406 1.3125-5.8594 1.3125-3.9297 0-7.1562-1.5625-9.6875-4.6875-2.5234-3.125-3.7812-7.1445-3.7812-12.062 0-4.9141 1.2578-8.9375 3.7812-12.062 2.5312-3.125 5.7578-4.6875 9.6875-4.6875 2.1953 0 4.1445 0.44531 5.8438 1.3281 1.707 0.88672 3.2578 2.2578 4.6562 4.1094zm-6.7188 20.656c2.1875 0 3.8516-0.79688 5-2.3906 1.1445-1.5938 1.7188-3.9102 1.7188-6.9531 0-3.0391-0.57422-5.3594-1.7188-6.9531-1.1484-1.5938-2.8125-2.3906-5-2.3906-2.168 0-3.8242 0.79688-4.9688 2.3906-1.1484 1.5938-1.7188 3.9141-1.7188 6.9531 0 3.043 0.57031 5.3594 1.7188 6.9531 1.1445 1.5938 2.8008 2.3906 4.9688 2.3906z"/>
  </symbol>
  <symbol id="d" overflow="visible">
   <path d="m21.875-6.5781c2.1758 0 3.8359-0.79688 4.9844-2.3906 1.1562-1.5938 1.7344-3.9102 1.7344-6.9531 0-3.0391-0.57812-5.3594-1.7344-6.9531-1.1484-1.5938-2.8086-2.3906-4.9844-2.3906-2.1875 0-3.8672 0.80469-5.0312 2.4062-1.168 1.6055-1.75 3.918-1.75 6.9375 0 3.0234 0.58203 5.3359 1.75 6.9375 1.1641 1.6055 2.8438 2.4062 5.0312 2.4062zm-6.7812-20.656c1.4062-1.8516 2.9609-3.2227 4.6719-4.1094 1.707-0.88281 3.6719-1.3281 5.8906-1.3281 3.9375 0 7.1641 1.5625 9.6875 4.6875 2.5195 3.125 3.7812 7.1484 3.7812 12.062 0 4.918-1.2617 8.9375-3.7812 12.062-2.5234 3.125-5.75 4.6875-9.6875 4.6875-2.2188 0-4.1836-0.44531-5.8906-1.3281-1.7109-0.88281-3.2656-2.2539-4.6719-4.1094v4.6094h-10.188v-44.312h10.188z"/>
  </symbol>
  <symbol id="c" overflow="visible">
   <path d="m4.9062-31.891h10.188v31.891h-10.188zm0-12.422h10.188v8.3125h-10.188z"/>
  </symbol>
 </defs>
 <g>
  <path d="m119 409.5v82.832c18.668 11.668 38.5 22.168 59.5 31.5l8.168-199.5c-39.668 12.836-67.668 46.668-67.668 85.168z"/>
  <path d="m350 439.83c44.332 0 84-56 93.332-130.67-5.832-3.5-9.332-9.332-12.832-14-21 24.5-50.168 38.5-80.5 38.5s-58.332-14-80.5-38.5c-3.5 5.832-7 10.5-12.832 14 9.332 74.668 49 130.67 93.332 130.67z"/>
  <path d="m464.33 318.5c-12.832 84-59.5 144.67-114.33 144.67s-101.5-60.668-114.33-144.67c-3.5 1.168-23.332 1.168-26.832 2.332l-9.332 213.5c46.668 17.5 96.832 26.832 150.5 26.832 53.668 0 103.83-9.332 150.5-26.832l-9.332-213.5c-3.5039-1.1641-23.34-2.332-26.84-2.332z"/>
  <path d="m513.33 324.33 9.3359 200.67c21-9.332 40.832-19.832 59.5-31.5v-82.832c-1.168-39.668-29.168-73.5-68.836-86.336z"/>
  <path d="m493.5 233.33c0-11.668 8.168-24.5 21-28 14-3.5 21-16.332 21-28s-7-24.5-21-28c-12.832-3.5-21-15.168-21-28 0-5.832 2.332-12.832 5.832-17.5 15.168-19.832 0-46.668-23.332-46.668-3.5 0-7 0-10.5 2.332-18.668 7-38.5-7-38.5-28v-1.1641c1.168-29.168-37.332-40.832-53.668-17.5-5.832 8.168-15.168 12.832-24.5 12.832s-18.668-4.668-24.5-12.832c-16.332-23.332-53.668-11.668-53.668 16.332v1.168c0 17.5-12.832 30.332-29.168 30.332-3.5 0-7-1.168-9.332-1.168-21-7-39.668 9.332-39.668 28 0 5.832 2.332 11.668 5.832 17.5 4.668 5.832 5.832 11.668 5.832 17.5 0 12.832-8.168 24.5-21 28-14 3.5-21 16.332-21 28 0 11.668 7 23.332 21 28 12.832 3.5 21 16.332 21 28 0 5.832-2.332 12.832-5.832 17.5-15.168 19.832 0 46.668 23.332 46.668 28 0 42-43.168 42-43.168l11.668 12.832c18.668 26.832 44.332 43.168 73.5 43.168s56-16.332 73.5-44.332l10.5-12.832c10.5 17.5 19.832 38.5 30.332 42h1.168c21 7 38.5-9.332 38.5-28 0-5.832-2.332-11.668-5.832-17.5-2.3281-4.6641-3.4961-11.664-3.4961-17.5zm-143.5 54.836c-43.168 0-77-50.168-77-110.83 0-16.332 2.332-31.5 7-45.5 11.668 7 29.168 12.832 56 10.5 19.832-1.168 68.832 2.332 92.168 45.5-4.668 55.996-38.5 100.33-78.168 100.33z"/>
  <use x="70" y="735" xlink:href="#b"/>
  <use x="220.503906" y="735" xlink:href="#a"/>
  <use x="287.953125" y="735" xlink:href="#e"/>
  <use x="350.015625" y="735" xlink:href="#d"/>
  <use x="450.105469" y="735" xlink:href="#b"/>
  <use x="600.609375" y="735" xlink:href="#a"/>
  <use x="628.496094" y="735" xlink:href="#c"/>
 </g>
</svg>
