<?xml version="1.0" encoding="UTF-8"?>
<svg xmlns="http://www.w3.org/2000/svg" viewBox="0 0 497.56 466.72">
    <defs>
        <style>
            .cls-1 {
                fill: #fc6067;
            }

            .cls-1,
            .cls-2,
            .cls-3,
            .cls-4,
            .cls-5,
            .cls-6,
            .cls-7 {
                stroke: #efece6;
                stroke-miterlimit: 10;
                stroke-width: 10px;
            }

            .cls-2 {
                fill: #59e78b;
            }

            .cls-3 {
                fill: #564256;
            }

            .cls-4 {
                fill: #e28341;
            }

            .cls-5 {
                fill: #fcb860;
            }

            .cls-6 {
                fill: #4d2f13;
            }

            .cls-7 {
                fill: #68b1fc;
            }
        </style>
    </defs>
    <g id="palette">
        <path class="cls-3"
            d="M443.86,242.29c0,26.04-11.24,53.69-47.29,64.92-36.06,11.23-96.93,6.04-116.67,19.97-17.87,12.61-20.65,24.26-18.92,40.99,1.61,15.58,14.05,40.55,11.56,56.76-2.7,17.57-22.85,36.79-48.11,36.79-121.19,0-219.43-98.24-219.43-219.43S103.24,22.85,224.43,22.85s219.43,98.24,219.43,219.43Z" />
    </g>
    <g id="couleurs">
        <circle id="couleur-4" class="cls-7" cx="231.82" cy="96.79" r="34.8" />
        <circle id="couleur-3" class="cls-1" cx="122.04" cy="156.26" r="34.8" />
        <circle id="couleur-2" class="cls-5" cx="96.63" cy="273.89" r="34.8" />
        <circle id="couleur-1" class="cls-2" cx="172.45" cy="366.63" r="34.8" />
    </g>
    <g id="pinceau">
        <ellipse class="cls-6" cx="384.79" cy="112.77" rx="148.73" ry="33.19"
            transform="translate(32.96 305.12) rotate(-45)" />
        <path class="cls-6" d="M316.68,138.91c23.66,14.83,44.36,40.05,44.36,40.05" />
        <path class="cls-4"
            d="M318.16,225.43c0-25.66-19.33-46.46-43.17-46.46-14.58,0-27.46,7.79-35.28,19.7,0,.01-.02.02-.03.04-.09.14-.18.28-.28.43-.86,1.34-1.66,2.73-2.38,4.17-7.35,13.61-20.91,41.79-49.62,36.46,37.58,49.62,84.61,36.33,95.36,31.56,12-5.32,35.4-24.06,35.4-45.89Z" />
    </g>
</svg>